<?xml version="1.0" encoding="utf-8"?>
<!-- Designed by Vexels.com - 2020 All Rights Reserved - https://vexels.com/terms-and-conditions/  -->
<svg version="1.1" id="Layer_1" xmlns="http://www.w3.org/2000/svg" xmlns:xlink="http://www.w3.org/1999/xlink" x="0px" y="0px"
	 viewBox="0 0 1200 1200" enable-background="new 0 0 1200 1200" xml:space="preserve">
<g>
	<g>
		<g>
			<path fill="rgb(229, 231, 235)" d="M375.244,734.376c-1.656,0-3.335-0.311-4.969-0.957c-97.518-38.867-160.529-129.213-160.529-230.157
				c0-137.449,117.043-249.272,260.903-249.272c109.02,0,207.48,65.67,245.01,163.408c2.659,6.936-0.805,14.716-7.734,17.382
				c-6.951,2.651-14.716-0.798-17.382-7.734c-33.564-87.421-121.935-146.163-219.894-146.163
				c-129.031,0-234.009,99.759-234.009,222.378c0,89.867,56.364,170.405,143.587,205.163c6.906,2.75,10.271,10.575,7.521,17.474
				C385.645,731.17,380.593,734.376,375.244,734.376z"/>
		</g>
		<g>
			<path fill="rgb(229, 231, 235)" d="M470.65,200.299c-7.985,0-14.457-6.473-14.457-14.457v-77.15c0-7.985,6.473-14.457,14.457-14.457
				c7.985,0,14.457,6.473,14.457,14.457v77.15C485.107,193.827,478.635,200.299,470.65,200.299z"/>
		</g>
		<g>
			<path fill="rgb(229, 231, 235)" d="M470.65,200.299c-7.985,0-14.457-6.473-14.457-14.457v-77.15c0-7.985,6.473-14.457,14.457-14.457
				c7.985,0,14.457,6.473,14.457,14.457v77.15C485.107,193.827,478.635,200.299,470.65,200.299z"/>
		</g>
		<g>
			<path fill="rgb(229, 231, 235)" d="M470.65,200.299c-7.985,0-14.457-6.473-14.457-14.457v-77.15c0-7.985,6.473-14.457,14.457-14.457
				c7.985,0,14.457,6.473,14.457,14.457v77.15C485.107,193.827,478.635,200.299,470.65,200.299z"/>
		</g>
		<g>
			<g>
				<path fill="rgb(229, 231, 235)" d="M470.65,200.299c-7.985,0-14.457-6.473-14.457-14.457v-77.15c0-7.985,6.473-14.457,14.457-14.457
					c7.985,0,14.457,6.473,14.457,14.457v77.15C485.107,193.827,478.635,200.299,470.65,200.299z"/>
			</g>
		</g>
		<g>
			<path fill="rgb(229, 231, 235)" d="M240.675,291.078c-3.586,0-7.179-1.322-9.975-3.989l-57.245-54.556
				c-5.781-5.508-6.002-14.663-0.494-20.444c5.508-5.797,14.678-5.994,20.444-0.494l57.245,54.556
				c5.781,5.508,6.002,14.663,0.494,20.444C248.302,289.582,244.489,291.078,240.675,291.078z"/>
		</g>
		<g>
			<path fill="rgb(229, 231, 235)" d="M183.43,783.963c-3.814,0-7.628-1.497-10.469-4.482c-5.508-5.781-5.288-14.936,0.494-20.444
				l57.245-54.556c5.766-5.5,14.929-5.295,20.444,0.494c5.508,5.781,5.288,14.936-0.494,20.444l-57.245,54.556
				C190.609,782.641,187.016,783.963,183.43,783.963z"/>
		</g>
		<g>
			<path fill="rgb(229, 231, 235)" d="M700.625,291.078c-3.814,0-7.628-1.497-10.469-4.482c-5.508-5.781-5.288-14.936,0.494-20.444
				l57.245-54.556c5.774-5.5,14.929-5.303,20.444,0.494c5.508,5.781,5.288,14.936-0.494,20.444L710.6,287.09
				C707.804,289.757,704.211,291.078,700.625,291.078z"/>
		</g>
		<g>
			<g>
				<path fill="rgb(229, 231, 235)" d="M145.421,509.187c-0.015,0-0.03,0-0.046,0l-80.963-0.258C56.427,508.906,49.97,502.41,50,494.425
					c0.023-7.992,6.442-14.412,14.503-14.412l80.963,0.258c7.985,0.023,14.442,6.518,14.412,14.503
					C159.856,502.744,153.383,509.187,145.421,509.187z"/>
			</g>
		</g>
	</g>
	<g>
		<g>
			<path fill="rgb(229, 231, 235)" d="M1034.203,837.06l-553.859-0.015c-65.822,0-119.375-51.319-119.375-114.399
				c0-86.631,73.655-157.103,164.191-157.103h1.968c2.211-10.796,6.951-22.944,14.336-36.755
				c41.01-76.732,119.99-123.964,211.263-126.349c93.37-2.378,180.077,43.752,226.435,120.537
				c9.876,16.372,16.045,30.556,18.651,42.977C1082.765,571.849,1150,640.041,1150,723.018v3.1
				C1150,787.29,1098.058,837.06,1034.203,837.06z M525.16,592.437c-75.706,0-137.297,58.415-137.297,130.209
				c0,48.25,41.488,87.505,92.481,87.505l553.859,0.015c49.017,0,88.902-37.705,88.902-84.048v-3.1
				c0-71.999-61.575-130.581-137.259-130.581c-7.43,0-13.493-6.017-13.493-13.447c0-6.951-2.819-19.897-16.228-42.111
				c-41.367-68.527-119.223-109.673-202.694-107.554c-81.48,2.135-151.853,44.049-188.251,112.142
				c-10.416,19.487-12.604,31.164-12.604,37.523c0,7.43-6.017,13.447-13.447,13.447H525.16z"/>
		</g>
		<g>
			<path fill="rgb(229, 231, 235)" d="M557.965,980.723c-7.43,0-13.447-6.017-13.447-13.447v-58.529c0-7.43,6.017-13.447,13.447-13.447
				c7.43,0,13.447,6.017,13.447,13.447v58.529C571.412,974.706,565.395,980.723,557.965,980.723z"/>
		</g>
		<g>
			<path fill="rgb(229, 231, 235)" d="M678.738,980.723c-7.43,0-13.447-6.017-13.447-13.447v-58.529c0-7.43,6.017-13.447,13.447-13.447
				c7.43,0,13.447,6.017,13.447,13.447v58.529C692.185,974.706,686.168,980.723,678.738,980.723z"/>
		</g>
		<g>
			<path fill="rgb(229, 231, 235)" d="M799.51,980.723c-7.43,0-13.447-6.017-13.447-13.447v-58.529c0-7.43,6.017-13.447,13.447-13.447
				c7.43,0,13.447,6.017,13.447,13.447v58.529C812.957,974.706,806.94,980.723,799.51,980.723z"/>
		</g>
		<g>
			<path fill="rgb(229, 231, 235)" d="M920.283,980.723c-7.43,0-13.447-6.017-13.447-13.447v-58.529c0-7.43,6.017-13.447,13.447-13.447
				s13.447,6.017,13.447,13.447v58.529C933.73,974.706,927.713,980.723,920.283,980.723z"/>
		</g>
		<g>
			<path fill="rgb(229, 231, 235)" d="M618.56,1105.765c-7.43,0-13.447-6.017-13.447-13.447v-58.536c0-7.43,6.017-13.447,13.447-13.447
				c7.43,0,13.447,6.017,13.447,13.447v58.536C632.007,1099.748,625.99,1105.765,618.56,1105.765z"/>
		</g>
		<g>
			<path fill="rgb(229, 231, 235)" d="M739.333,1105.765c-7.43,0-13.447-6.017-13.447-13.447v-58.536c0-7.43,6.017-13.447,13.447-13.447
				c7.43,0,13.447,6.017,13.447,13.447v58.536C752.78,1099.748,746.763,1105.765,739.333,1105.765z"/>
		</g>
		<g>
			<path fill="rgb(229, 231, 235)" d="M860.106,1105.765c-7.43,0-13.447-6.017-13.447-13.447v-58.536c0-7.43,6.017-13.447,13.447-13.447
				c7.43,0,13.447,6.017,13.447,13.447v58.536C873.553,1099.748,867.536,1105.765,860.106,1105.765z"/>
		</g>
	</g>
</g>
</svg>
